<svg viewBox="340 380 780 235" fill="none" xmlns="http://www.w3.org/2000/svg">
<path d="M351.481 380.746C352.399 380.741 353.316 380.735 354.262 380.729C355.267 380.733 356.272 380.737 357.308 380.741C358.369 380.738 359.429 380.734 360.522 380.731C364.042 380.722 367.562 380.728 371.082 380.734C373.533 380.733 375.984 380.731 378.435 380.729C383.584 380.726 388.733 380.73 393.882 380.739C400.451 380.751 407.019 380.744 413.588 380.732C418.658 380.725 423.727 380.727 428.797 380.732C431.216 380.734 433.635 380.732 436.055 380.728C448.229 380.709 459.998 380.777 472 383C473.624 383.221 475.248 383.431 476.875 383.625C477.906 383.749 478.938 383.873 480 384C480 384.66 480 385.32 480 386C480.807 386.086 481.614 386.173 482.445 386.262C496.967 389.278 509.807 398.712 521 408C521.988 408.816 522.975 409.632 523.992 410.473C528.351 414.214 528.351 414.214 530 416C530 416.66 530 417.32 530 418C530.66 418 531.32 418 532 418C550.719 437.14 560.091 462.92 562.125 489.125C562.212 490.177 562.298 491.229 562.387 492.313C562.597 494.875 562.801 497.437 563 500C562.34 500 561.68 500 561 500C561.087 500.826 561.087 500.826 561.176 501.668C562.535 526.719 549.13 552.522 532.977 570.738C531.988 571.829 530.996 572.916 530 574C529.493 574.552 528.986 575.105 528.464 575.673C508.251 597.393 482.416 610.739 452.465 612.117C445.529 612.304 438.591 612.281 431.653 612.266C429.424 612.267 427.195 612.269 424.967 612.272C420.326 612.274 415.686 612.27 411.046 612.261C405.105 612.249 399.164 612.256 393.222 612.268C388.633 612.275 384.045 612.273 379.456 612.268C377.264 612.266 375.072 612.268 372.881 612.273C369.825 612.278 366.77 612.27 363.715 612.259C362.815 612.263 361.916 612.267 360.99 612.271C353.864 612.223 348.24 611.235 343 606C339.181 596.017 340.698 582.895 340.739 572.39C340.75 569.205 340.74 566.02 340.727 562.834C340.702 528.511 340.702 528.511 348.813 513.688C351.697 507.16 347.533 499.485 345.254 493.207C342.377 484.35 341.676 475.01 341.391 465.758C341.354 464.699 341.317 463.64 341.278 462.549C340.868 449.706 340.778 436.858 340.76 424.009C340.754 420.516 340.73 417.024 340.702 413.531C340.679 410.143 340.677 406.755 340.672 403.367C340.66 402.126 340.647 400.884 340.635 399.605C340.651 393.34 340.746 388.446 344 383C347.154 380.897 347.884 380.75 351.481 380.746Z" fill="#90EE90"/>
<path d="M448.688 490.25C450.478 491.811 452.248 493.396 454 495C455.082 495.974 456.164 496.948 457.246 497.922C462.986 503.129 468.536 508.489 473.977 514.008C475.822 515.825 477.714 517.513 479.688 519.188C484.287 523.123 488.494 527.44 492.726 531.763C495.599 534.679 498.508 537.473 501.625 540.129C507.731 545.4 513.322 551.216 519 556.938C520.168 558.11 521.336 559.283 522.504 560.455C525.339 563.301 528.17 566.15 531 569C531.99 568.67 532.98 568.34 534 568C526.271 585.032 503.687 598.178 487 605C468.837 611.788 450.806 612.307 431.653 612.266C429.424 612.267 427.195 612.269 424.967 612.272C420.326 612.274 415.686 612.27 411.046 612.261C405.105 612.249 399.164 612.256 393.222 612.268C388.633 612.275 384.045 612.273 379.456 612.268C377.264 612.266 375.072 612.268 372.881 612.273C369.825 612.278 366.77 612.27 363.715 612.259C362.815 612.263 361.916 612.267 360.99 612.271C353.864 612.223 348.24 611.235 343 606C339.181 596.017 340.698 582.895 340.739 572.39C340.75 569.205 340.74 566.02 340.727 562.834C340.702 528.511 340.702 528.511 348.813 513.688C350.416 510.058 349.902 507.816 349 504C348.629 503.113 348.258 502.226 347.875 501.313C347 499 347 499 348 495C349.65 498.96 351.3 502.92 353 507C354.238 505.453 355.475 503.906 356.75 502.313C358.167 500.542 359.584 498.771 361 497C361.622 496.169 362.243 495.337 362.883 494.481C365.354 491.586 368.107 489.288 371.125 487C371.987 486.347 371.987 486.347 372.867 485.68C396.061 468.469 426.785 472.715 448.688 490.25Z" fill="#90EE90"/>
<path d="M351 510C355.188 511.396 356.119 514.35 358.188 518C373.069 542.957 398.935 563.192 427.043 570.818C433.402 572.423 439.727 573.285 446.281 573.566C447.112 573.605 447.943 573.643 448.799 573.683C463.13 574.28 477.483 574.356 491.823 574.532C495.913 574.583 500.004 574.639 504.094 574.693C512.063 574.8 520.031 574.901 528 575C527.049 576.119 526.096 577.237 525.143 578.354C524.612 578.977 524.082 579.599 523.535 580.241C506.424 599.85 480.468 609.887 455 612C451.6 612.134 448.205 612.147 444.802 612.145C443.825 612.149 442.849 612.152 441.842 612.155C438.641 612.165 435.44 612.167 432.238 612.168C430.001 612.171 427.764 612.175 425.527 612.178C420.851 612.184 416.175 612.186 411.499 612.185C405.51 612.185 399.522 612.199 393.533 612.216C388.918 612.227 384.304 612.229 379.689 612.229C377.481 612.23 375.273 612.234 373.064 612.242C369.979 612.252 366.895 612.249 363.81 612.243C362.901 612.249 361.993 612.254 361.056 612.26C353.901 612.224 348.264 611.259 343 606C339.181 596.017 340.698 582.895 340.739 572.39C340.75 569.205 340.74 566.02 340.727 562.834C340.713 544.521 340.84 525.966 351 510Z" fill="#76C776"/>
<path d="M627 408C627.66 408.33 628.32 408.66 629 409C630.835 409.099 632.675 409.136 634.513 409.142C636.247 409.152 636.247 409.152 638.015 409.163C639.274 409.167 640.532 409.171 641.828 409.176C643.809 409.193 645.79 409.21 647.771 409.229C652.653 409.274 657.536 409.312 662.419 409.326C665.152 409.334 667.884 409.353 670.617 409.383C673.184 409.411 675.75 409.424 678.317 409.42C687.194 409.543 694.633 411.201 703 414C703.33 413.34 703.66 412.68 704 412C704 412.99 704 413.98 704 415C705.176 415.309 705.176 415.309 706.375 415.625C722.337 421.68 733.702 434.159 741.25 449.125C749.111 467.076 749.198 487.813 742.898 506.219C736.226 523.265 724.427 535.313 708 543C694.648 548.428 680.276 549.44 666 549C666 549.66 666 550.32 666 551C665.34 550.67 664.68 550.34 664 550C661.846 549.902 659.688 549.869 657.531 549.867C656.238 549.866 654.945 549.865 653.613 549.863C652.939 549.865 652.264 549.867 651.569 549.87C649.508 549.875 647.447 549.87 645.387 549.863C643.447 549.865 643.447 549.865 641.469 549.867C639.681 549.875 639.681 549.875 637.857 549.871C635.054 549.804 635.054 549.804 633 551C633 550.34 633 549.68 633 549C631.025 549.348 631.025 549.348 629 550C628.505 550.99 628.505 550.99 628 552C627.67 550.68 627.34 549.36 627 548C626.01 548.33 625.02 548.66 624 549C624 547.35 624 545.7 624 544C624.66 544 625.32 544 626 544C626 527.17 626 510.34 626 493C625.34 493 624.68 493 624 493C624.326 492.005 624.651 491.009 624.987 489.984C626.099 486.071 626.263 482.309 626.211 478.26C626.21 477.521 626.209 476.782 626.207 476.021C626.201 473.601 626.18 471.181 626.16 468.762C626.154 467.073 626.149 465.383 626.144 463.694C626.131 459.265 626.107 454.835 626.079 450.405C626.036 443.298 626.006 436.19 625.983 429.083C625.973 426.6 625.956 424.117 625.938 421.634C625.931 420.12 625.925 418.607 625.918 417.093C625.911 416.4 625.905 415.708 625.898 414.994C625.886 410.227 625.886 410.227 627 408ZM648 428C648 461.66 648 495.32 648 530C665.081 531.961 665.081 531.961 681 529C682.392 529.093 682.392 529.093 683.812 529.188C694.623 529.255 704.152 524.033 712 517C721.529 507.289 724.788 493.405 725.312 480.188C724.908 465.364 720.395 451.84 710.168 440.98C706.74 437.849 702.991 435.356 699 433C697.053 433.842 697.053 433.842 696 435C696 434.01 696 433.02 696 432C694.546 431.508 693.086 431.032 691.625 430.562C690.407 430.162 690.407 430.162 689.164 429.754C675.978 426.612 661.032 428 648 428Z" fill="#1F2E38"/>
<path d="M1095 446C1095 446.66 1095 447.32 1095 448C1095.57 448.147 1096.14 448.294 1096.72 448.445C1106.3 451.229 1110.88 456.118 1115.84 464.633C1118.05 469.134 1118.14 473.105 1118.19 478.108C1118.2 479.169 1118.2 479.169 1118.21 480.252C1118.23 481.785 1118.25 483.318 1118.26 484.85C1118.28 487.275 1118.31 489.7 1118.34 492.125C1118.41 498.146 1118.47 504.166 1118.53 510.187C1118.58 515.279 1118.63 520.37 1118.69 525.462C1118.72 527.852 1118.74 530.242 1118.76 532.633C1118.78 534.096 1118.79 535.559 1118.81 537.022C1118.82 538.3 1118.84 539.578 1118.85 540.895C1118.86 544.035 1118.86 544.035 1120 547C1120 547.66 1120 548.32 1120 549C1118 551 1118 551 1115.38 551.125C1114.59 551.084 1113.81 551.042 1113 551C1113 550.67 1113 550.34 1113 550C1108.05 549.67 1103.1 549.34 1098 549C1097.67 545.7 1097.34 542.4 1097 539C1095.91 540.052 1094.81 541.104 1093.69 542.187C1083.46 551.162 1072.17 552.749 1059 552C1048.82 550.578 1041.97 547.02 1035.63 538.937C1031.04 532.338 1029.49 525.681 1030.21 517.633C1031.83 508.825 1036.26 503.153 1043.13 497.641C1052.26 492.419 1062.28 490.797 1072.51 489.135C1074.89 488.747 1077.27 488.343 1079.66 487.937C1081.18 487.681 1082.71 487.426 1084.24 487.172C1084.95 487.053 1085.65 486.934 1086.38 486.812C1089.96 486.235 1093.38 485.868 1097 486C1096.73 476.726 1096.73 476.726 1092 469C1086.28 464.047 1080.48 462.777 1073 463C1069.92 463.437 1066.99 464.136 1064 465C1063.3 465.106 1062.59 465.211 1061.87 465.32C1059.86 465.842 1059.86 465.842 1058.85 467.734C1057.92 470.218 1057.11 472.701 1056.38 475.25C1056.11 476.142 1055.85 477.034 1055.59 477.953C1055.39 478.628 1055.2 479.304 1055 480C1052.1 480.027 1049.21 480.047 1046.31 480.062C1045.09 480.075 1045.09 480.075 1043.84 480.088C1039.76 480.104 1035.98 480.03 1032 479C1035.02 467.831 1038.61 458.202 1048.75 451.812C1063.52 443.442 1078.61 444.677 1095 446ZM1090.27 501.465C1087.44 502.131 1084.71 502.274 1081.81 502.437C1071.22 503.145 1062.75 505.011 1054.63 512.062C1052.11 516.605 1052.4 520.927 1053 526C1054.28 529.755 1056.13 531.319 1059.44 533.312C1066.77 536.602 1074.5 535.777 1081.94 533.25C1089.39 530.171 1093.34 526.098 1097 519C1098.47 514.378 1098.67 509.3 1097.31 504.625C1096.05 502.742 1096.05 502.742 1093.38 502.25C1092.59 502.167 1091.81 502.085 1091 502C1094.47 501.505 1094.47 501.505 1098 501C1094.62 499.872 1093.53 500.428 1090.27 501.465Z" fill="#90EE90"/>
<path d="M845 458C858.155 472.278 860.833 487.766 860.175 506.409C859.471 516.833 855.209 526.649 849 535C848.34 535 847.68 535 847 535C846.772 535.578 846.543 536.155 846.308 536.75C841.743 544.6 831.371 548.692 823 551C812.881 553.542 801.389 552.703 791.515 549.656C788.906 548.976 786.684 548.884 784 549C784 548.01 784 547.02 784 546C783.265 545.731 782.53 545.461 781.773 545.184C770.337 540.303 764.589 530.348 760.125 519.25C754.603 504.695 755.915 488.458 761 474C766.373 462.192 774.766 452.468 787.078 447.844C807.145 441.31 828.88 443.43 845 458ZM786.625 471.188C778.825 481.307 778.277 493.72 779 506C779.853 510.789 780.812 515.625 783 520C783.66 520 784.32 520 785 520C785.091 520.587 785.183 521.173 785.277 521.777C786.824 526.535 791.692 529.58 795.816 532.117C802.536 535.165 811.197 535.135 818.281 533.461C822.013 531.972 825.068 529.706 828 527C828.495 526.553 828.99 526.105 829.5 525.645C836.739 518.314 838.333 508.434 838.312 498.5C838.232 494.198 837.996 490.187 837 486C836.803 485.006 836.803 485.006 836.601 483.992C834.387 476.66 829.379 470.148 823 466C811.122 459.637 795.996 461.374 786.625 471.188Z" fill="#1F2E38"/>
<path d="M960 446C959.396 449.508 958.475 452.542 957.059 455.805C956.648 456.76 956.238 457.716 955.815 458.701C955.36 459.748 954.906 460.796 954.438 461.875C953.433 464.219 952.43 466.564 951.43 468.91C951.16 469.542 950.89 470.174 950.613 470.826C947.013 479.287 943.543 487.802 940.062 496.313C939.377 497.986 938.692 499.659 938.007 501.333C936.989 503.819 935.971 506.305 934.953 508.792C931.947 516.133 928.932 523.47 925.904 530.801C925.144 532.64 924.387 534.48 923.629 536.32C923.177 537.414 922.724 538.509 922.258 539.637C921.867 540.583 921.477 541.528 921.075 542.503C920.123 544.715 919.104 546.861 918 549C914.708 549.029 911.417 549.047 908.125 549.063C907.188 549.071 906.251 549.079 905.285 549.088C903.941 549.093 903.941 549.093 902.57 549.098C901.329 549.106 901.329 549.106 900.063 549.114C898 549 898 549 896 548C894.842 545.03 893.84 542.046 892.855 539.016C891.836 535.298 891.836 535.298 889 533C888.663 531.001 888.331 529.001 888 527C887.094 524.246 885.994 521.577 884.895 518.895C884.42 517.717 884.42 517.717 883.937 516.515C882.901 513.945 881.857 511.379 880.812 508.813C880.092 507.029 879.373 505.245 878.654 503.462C877.175 499.793 875.693 496.126 874.208 492.461C871.134 484.864 868.083 477.259 865.037 469.652C864.141 467.415 863.242 465.18 862.343 462.945C861.794 461.575 861.244 460.206 860.695 458.836C860.221 457.656 859.747 456.475 859.258 455.259C858.08 452.207 857.035 449.104 856 446C863.92 446 871.84 446 880 446C882.084 451.512 884.167 457.026 886.244 462.541C886.95 464.413 887.657 466.285 888.365 468.156C889.388 470.861 890.407 473.567 891.426 476.274C891.738 477.097 892.051 477.92 892.373 478.768C894.264 483.81 895.875 488.856 897.274 494.057C897.821 496.195 897.821 496.195 900 497C900.676 498.828 900.676 498.828 901.312 501.25C903.117 507.667 905.545 513.809 908 520C909.765 516.912 910 515.767 910 512C910.66 512 911.32 512 912 512C912.14 511.48 912.279 510.959 912.423 510.423C914.921 501.613 918.311 493.151 921.625 484.625C922.524 482.309 923.421 479.992 924.316 477.674C924.868 476.242 925.424 474.811 925.982 473.381C927.181 470.277 928.238 467.237 929 464C929.521 462.549 930.065 461.107 930.629 459.672C930.942 458.873 931.254 458.074 931.576 457.25C932.064 456.013 932.064 456.013 932.562 454.75C932.892 453.91 933.221 453.069 933.561 452.203C934.372 450.135 935.185 448.067 936 446C944.166 445.156 951.85 444.938 960 446Z" fill="#1E2D36"/>
<path d="M1024 445C1024 451.6 1024 458.2 1024 465C1020.57 465.155 1020.57 465.155 1017.06 465.313C1011 465.662 1005.57 466.519 1000 469C999.303 469.28 998.605 469.56 997.887 469.848C993.928 472.265 992.85 477.78 991.615 482.035C990.435 487.721 990.658 493.433 990.742 499.215C990.75 500.561 990.757 501.907 990.762 503.253C990.779 506.765 990.813 510.277 990.852 513.789C990.912 519.433 990.945 525.077 990.978 530.722C990.992 532.687 991.014 534.651 991.036 536.616C991.046 537.805 991.056 538.994 991.066 540.219C991.077 541.265 991.088 542.312 991.1 543.391C991 546 991 546 990 549C989.01 549 988.02 549 987 549C986.67 549.99 986.34 550.98 986 552C984.271 552.027 982.542 552.047 980.812 552.063C979.85 552.074 978.887 552.086 977.895 552.098C975.066 552.002 972.691 551.888 970 551C967.583 547.532 967.764 544.28 967.789 540.152C967.79 539.472 967.791 538.792 967.793 538.091C967.799 535.85 967.82 533.609 967.84 531.367C967.846 529.808 967.851 528.249 967.856 526.691C967.869 522.591 967.893 518.492 967.921 514.393C967.964 507.824 967.994 501.255 968.017 494.687C968.027 492.39 968.044 490.093 968.062 487.797C968.069 486.394 968.075 484.992 968.082 483.589C968.09 482.362 968.098 481.135 968.107 479.871C968.2 477.056 968.2 477.056 967 475C966.905 473.637 966.869 472.269 966.867 470.902C966.866 470.101 966.865 469.3 966.863 468.475C966.867 467.637 966.871 466.8 966.875 465.938C966.871 465.096 966.867 464.255 966.863 463.389C966.873 457.127 966.873 457.127 968 456C968.33 452.7 968.66 449.4 969 446C975.93 446 982.86 446 990 446C991.203 448.406 991.101 449.95 991.062 452.625C991.053 453.442 991.044 454.26 991.035 455.102C991.024 455.728 991.012 456.355 991 457C991.33 456.34 991.66 455.68 992 455C992.66 455 993.32 455 994 455C994.186 454.423 994.371 453.845 994.562 453.25C997.566 448.548 1003.33 446.493 1008.6 445.305C1013.72 444.655 1018.85 444.893 1024 445Z" fill="#90EE90"/>
<path d="M1024 445C1024 451.6 1024 458.2 1024 465C1020.57 465.155 1020.57 465.155 1017.06 465.313C1011.64 465.615 1006.79 466.332 1001.73 468.379C1000 469 1000 469 997 469C1004.96 463.031 1012.3 462.758 1022 463C1022.33 457.72 1022.66 452.44 1023 447C1010.11 447.62 1002.08 448.457 993 458C991.525 459.946 990.273 461.912 989 464C988.67 464 988.34 464 988 464C988 458.72 988 453.44 988 448C982.06 448 976.12 448 970 448C970 480.67 970 513.34 970 547C975.94 547 981.88 547 988 547C987.984 545.276 987.969 543.551 987.952 541.774C987.904 536.031 987.869 530.288 987.845 524.544C987.829 521.067 987.808 517.59 987.774 514.113C987.734 510.101 987.72 506.09 987.707 502.078C987.684 500.235 987.684 500.235 987.66 498.355C987.656 478.853 987.656 478.853 993.688 472.75C994.451 472.173 995.214 471.595 996 471C995.703 471.57 995.406 472.14 995.101 472.727C990.898 481.405 990.603 489.701 990.742 499.215C990.75 500.561 990.757 501.907 990.762 503.253C990.779 506.765 990.813 510.277 990.852 513.789C990.912 519.433 990.945 525.077 990.978 530.722C990.992 532.687 991.014 534.651 991.036 536.616C991.046 537.805 991.056 538.994 991.066 540.219C991.077 541.265 991.088 542.312 991.1 543.391C991 546 991 546 990 549C989.01 549 988.02 549 987 549C986.67 549.99 986.34 550.98 986 552C984.271 552.027 982.542 552.047 980.812 552.063C979.85 552.074 978.887 552.086 977.895 552.098C975.066 552.002 972.691 551.888 970 551C967.583 547.532 967.764 544.28 967.789 540.152C967.79 539.472 967.791 538.792 967.793 538.091C967.799 535.85 967.82 533.609 967.84 531.367C967.846 529.808 967.851 528.249 967.856 526.691C967.869 522.591 967.893 518.492 967.921 514.393C967.964 507.824 967.994 501.255 968.017 494.687C968.027 492.39 968.044 490.093 968.062 487.797C968.069 486.394 968.075 484.992 968.082 483.589C968.09 482.362 968.098 481.135 968.107 479.871C968.2 477.056 968.2 477.056 967 475C966.905 473.637 966.869 472.269 966.867 470.902C966.866 470.101 966.865 469.3 966.863 468.475C966.867 467.637 966.871 466.8 966.875 465.938C966.871 465.096 966.867 464.255 966.863 463.389C966.873 457.127 966.873 457.127 968 456C968.33 452.7 968.66 449.4 969 446C975.93 446 982.86 446 990 446C991.203 448.406 991.101 449.95 991.062 452.625C991.053 453.442 991.044 454.26 991.035 455.102C991.024 455.728 991.012 456.355 991 457C991.33 456.34 991.66 455.68 992 455C992.66 455 993.32 455 994 455C994.186 454.423 994.371 453.845 994.562 453.25C997.566 448.548 1003.33 446.493 1008.6 445.305C1013.72 444.655 1018.85 444.893 1024 445Z" fill="#6C9883"/>
</svg>